<svg width="24" height="25" viewBox="0 0 24 25" fill="none" xmlns="http://www.w3.org/2000/svg">
<path d="M9 10.1875C10.1046 10.1875 11 9.29207 11 8.1875C11 7.08293 10.1046 6.1875 9 6.1875C7.89543 6.1875 7 7.08293 7 8.1875C7 9.29207 7.89543 10.1875 9 10.1875Z" stroke="#292D32" stroke-width="1.5" stroke-linecap="round" stroke-linejoin="round"/>
<path d="M13 2.1875H9C4 2.1875 2 4.1875 2 9.1875V15.1875C2 20.1875 4 22.1875 9 22.1875H15C20 22.1875 22 20.1875 22 15.1875V10.1875" stroke="#292D32" stroke-width="1.5" stroke-linecap="round" stroke-linejoin="round"/>
<path d="M18 8.1875V2.1875L20 4.1875" stroke="#292D32" stroke-width="1.5" stroke-linecap="round" stroke-linejoin="round"/>
<path d="M18 2.1875L16 4.1875" stroke="#292D32" stroke-width="1.5" stroke-linecap="round" stroke-linejoin="round"/>
<path d="M2.66992 19.1375L7.59992 15.8275C8.38992 15.2975 9.52992 15.3575 10.2399 15.9675L10.5699 16.2575C11.3499 16.9275 12.6099 16.9275 13.3899 16.2575L17.5499 12.6875C18.3299 12.0175 19.5899 12.0175 20.3699 12.6875L21.9999 14.0875" stroke="#292D32" stroke-width="1.5" stroke-linecap="round" stroke-linejoin="round"/>
</svg>

