<svg width="89" height="13" viewBox="0 0 89 13" fill="none" xmlns="http://www.w3.org/2000/svg">
<path d="M6.54532 1.125V12.5H4.20938V1.125H6.54532ZM10.0453 1.125V2.96094H0.764069V1.125H10.0453ZM19.0141 10.6719V12.5H12.9594V10.6719H19.0141ZM13.725 1.125V12.5H11.3813V1.125H13.725ZM18.225 5.75781V7.53906H12.9594V5.75781H18.225ZM19.0063 1.125V2.96094H12.9594V1.125H19.0063ZM22.725 1.125V12.5H20.3813V1.125H22.725ZM29.5375 1.125L25.0297 6.74219L22.4281 9.53906L22.0063 7.32031L23.7641 4.91406L26.6625 1.125H29.5375ZM26.8734 12.5L23.5219 7.24219L25.2563 5.78906L29.6469 12.5H26.8734ZM36.475 9.52344C36.475 9.32031 36.4438 9.13802 36.3813 8.97656C36.324 8.8099 36.2146 8.65885 36.0531 8.52344C35.8917 8.38281 35.6651 8.24479 35.3734 8.10938C35.0818 7.97396 34.7042 7.83333 34.2406 7.6875C33.725 7.52083 33.2354 7.33333 32.7719 7.125C32.3135 6.91667 31.9073 6.67448 31.5531 6.39844C31.2042 6.11719 30.9281 5.79167 30.725 5.42188C30.5271 5.05208 30.4281 4.6224 30.4281 4.13281C30.4281 3.65885 30.5323 3.22917 30.7406 2.84375C30.949 2.45312 31.2406 2.11979 31.6156 1.84375C31.9906 1.5625 32.4333 1.34635 32.9438 1.19531C33.4594 1.04427 34.0245 0.96875 34.6391 0.96875C35.4776 0.96875 36.2094 1.11979 36.8344 1.42188C37.4594 1.72396 37.9438 2.13802 38.2875 2.66406C38.6365 3.1901 38.8109 3.79167 38.8109 4.46875H36.4828C36.4828 4.13542 36.4125 3.84375 36.2719 3.59375C36.1365 3.33854 35.9281 3.13802 35.6469 2.99219C35.3708 2.84635 35.0219 2.77344 34.6 2.77344C34.1938 2.77344 33.8552 2.83594 33.5844 2.96094C33.3135 3.08073 33.1104 3.24479 32.975 3.45312C32.8396 3.65625 32.7719 3.88542 32.7719 4.14062C32.7719 4.33333 32.8188 4.50781 32.9125 4.66406C33.0115 4.82031 33.1573 4.96615 33.35 5.10156C33.5427 5.23698 33.7797 5.36458 34.0609 5.48438C34.3422 5.60417 34.6677 5.72135 35.0375 5.83594C35.6573 6.02344 36.2016 6.23438 36.6703 6.46875C37.1443 6.70312 37.5401 6.96615 37.8578 7.25781C38.1755 7.54948 38.4151 7.88021 38.5766 8.25C38.738 8.61979 38.8188 9.03906 38.8188 9.50781C38.8188 10.0026 38.7224 10.4453 38.5297 10.8359C38.337 11.2266 38.0583 11.5573 37.6938 11.8281C37.3292 12.099 36.8943 12.3047 36.3891 12.4453C35.8839 12.5859 35.3188 12.6562 34.6938 12.6562C34.1313 12.6562 33.5766 12.5833 33.0297 12.4375C32.4828 12.2865 31.9854 12.0599 31.5375 11.7578C31.0948 11.4557 30.7406 11.0703 30.475 10.6016C30.2094 10.1328 30.0766 9.57812 30.0766 8.9375H32.4281C32.4281 9.29167 32.4828 9.59115 32.5922 9.83594C32.7016 10.0807 32.8552 10.2786 33.0531 10.4297C33.2563 10.5807 33.4958 10.6901 33.7719 10.7578C34.0531 10.8255 34.3604 10.8594 34.6938 10.8594C35.1 10.8594 35.4333 10.8021 35.6938 10.6875C35.9594 10.5729 36.1547 10.4141 36.2797 10.2109C36.4099 10.0078 36.475 9.77865 36.475 9.52344ZM42.9047 1.125V12.5H40.5688V1.125H42.9047ZM46.1703 1.125H48.1547L51.0766 9.47656L53.9984 1.125H55.9828L51.8734 12.5H50.2797L46.1703 1.125ZM45.1 1.125H47.0766L47.4359 9.26562V12.5H45.1V1.125ZM55.0766 1.125H57.0609V12.5H54.7172V9.26562L55.0766 1.125ZM63.8813 3.07031L60.7875 12.5H58.2953L62.5219 1.125H64.1078L63.8813 3.07031ZM66.4516 12.5L63.35 3.07031L63.1 1.125H64.7016L68.9516 12.5H66.4516ZM66.3109 8.26562V10.1016H60.3031V8.26562H66.3109ZM78.8813 6.55469V11.0625C78.7042 11.276 78.4307 11.5078 78.0609 11.7578C77.6912 12.0026 77.2146 12.2135 76.6313 12.3906C76.0479 12.5677 75.3422 12.6562 74.5141 12.6562C73.7797 12.6562 73.1104 12.5365 72.5063 12.2969C71.9021 12.0521 71.3813 11.6953 70.9438 11.2266C70.5115 10.7578 70.1781 10.1849 69.9438 9.50781C69.7094 8.82552 69.5922 8.04688 69.5922 7.17188V6.46094C69.5922 5.58594 69.7042 4.80729 69.9281 4.125C70.1573 3.44271 70.4828 2.86719 70.9047 2.39844C71.3266 1.92969 71.8292 1.57292 72.4125 1.32812C72.9958 1.08333 73.6443 0.960938 74.3578 0.960938C75.3474 0.960938 76.1599 1.1224 76.7953 1.44531C77.4307 1.76302 77.9151 2.20573 78.2484 2.77344C78.587 3.33594 78.7953 3.98177 78.8734 4.71094H76.6C76.5427 4.32552 76.4333 3.98958 76.2719 3.70312C76.1104 3.41667 75.8787 3.19271 75.5766 3.03125C75.2797 2.86979 74.8943 2.78906 74.4203 2.78906C74.0297 2.78906 73.6807 2.86979 73.3734 3.03125C73.0714 3.1875 72.8162 3.41927 72.6078 3.72656C72.3995 4.03385 72.2406 4.41406 72.1313 4.86719C72.0219 5.32031 71.9672 5.84635 71.9672 6.44531V7.17188C71.9672 7.76562 72.0245 8.29167 72.1391 8.75C72.2537 9.20312 72.4229 9.58594 72.6469 9.89844C72.876 10.2057 73.1573 10.4375 73.4906 10.5938C73.824 10.75 74.212 10.8281 74.6547 10.8281C75.0245 10.8281 75.3318 10.7969 75.5766 10.7344C75.8266 10.6719 76.0271 10.5964 76.1781 10.5078C76.3344 10.4141 76.4542 10.3255 76.5375 10.2422V8.22656H74.3969V6.55469H78.8813ZM88.4047 10.6719V12.5H82.35V10.6719H88.4047ZM83.1156 1.125V12.5H80.7719V1.125H83.1156ZM87.6156 5.75781V7.53906H82.35V5.75781H87.6156ZM88.3969 1.125V2.96094H82.35V1.125H88.3969Z" fill="#177AE5"/>
</svg>
